<?xml version="1.0" standalone="no"?>
<!DOCTYPE svg PUBLIC "-//W3C//DTD SVG 20010904//EN"
 "http://www.w3.org/TR/2001/REC-SVG-20010904/DTD/svg10.dtd">
<svg version="1.0" xmlns="http://www.w3.org/2000/svg"
 width="700.000000pt" height="700.000000pt" viewBox="0 0 700.000000 700.000000"
 preserveAspectRatio="xMidYMid meet">
<metadata>
Created by potrace 1.11, written by Peter Selinger 2001-2013
</metadata>
<g transform="translate(0.000000,700.000000) scale(0.100000,-0.100000)"
fill="#000000" stroke="none">
<path d="M5322 6093 c-6 -2 -10 -9 -6 -14 3 -5 0 -9 -6 -9 -12 0 -73 -60 -62
-60 4 -1 -3 -6 -16 -14 -13 -7 -32 -26 -43 -42 -10 -16 -19 -25 -19 -20 0 5
-10 -4 -22 -20 -43 -55 -53 -64 -67 -64 -8 0 -11 -3 -8 -6 4 -4 -11 -23 -33
-43 -22 -20 -51 -51 -65 -70 -14 -19 -25 -31 -25 -27 0 5 -16 -9 -36 -30 -20
-22 -40 -38 -44 -37 -5 2 -7 -4 -4 -12 4 -8 2 -15 -3 -15 -6 0 -24 -13 -41
-30 -18 -16 -30 -30 -27 -30 3 0 -3 -9 -12 -20 -10 -11 -23 -20 -31 -20 -7 0
-10 -4 -7 -10 3 -5 1 -10 -5 -10 -6 0 -8 -5 -4 -12 4 -7 3 -8 -5 -4 -6 4 -14
0 -17 -8 -3 -9 -9 -14 -13 -12 -3 2 -12 -2 -19 -10 -7 -8 -10 -14 -6 -14 3 0
-8 -14 -25 -32 -17 -17 -31 -37 -31 -42 -1 -6 -1 -344 -2 -751 l-1 -740 -373
0 c-328 0 -374 2 -374 15 0 13 -1 13 -10 0 -13 -20 -13 -4 0 21 7 13 7 25 0
38 -7 14 -7 22 0 26 8 5 8 11 0 20 -8 10 -8 19 0 34 7 15 8 27 0 40 -7 14 -7
22 0 26 8 5 8 11 0 20 -8 10 -8 19 0 34 7 15 8 27 0 40 -7 14 -7 22 0 26 8 5
8 11 0 20 -8 10 -8 19 0 34 7 15 8 27 0 40 -7 14 -7 22 0 26 8 5 8 11 0 20 -7
9 -8 20 -2 32 10 21 10 119 -1 129 -4 4 -2 13 4 20 7 8 7 14 -1 19 -5 3 -10
12 -10 18 0 8 3 7 9 -2 6 -9 8 -2 6 20 -4 47 -4 46 -20 25 -8 -11 -15 -16 -15
-12 0 7 -17 -11 -67 -70 -13 -14 -23 -24 -23 -21 0 2 -19 -14 -43 -37 -24 -23
-42 -43 -41 -45 4 -5 -19 -26 -44 -40 -12 -6 -22 -19 -22 -27 0 -8 -4 -12 -10
-9 -5 3 -10 -1 -10 -9 0 -8 -9 -18 -20 -21 -11 -4 -18 -9 -16 -13 2 -4 -2 -13
-10 -20 -8 -7 -14 -11 -14 -8 0 3 -11 -6 -25 -20 -14 -14 -25 -29 -25 -34 0
-5 -9 -12 -20 -15 -11 -4 -18 -10 -15 -15 3 -5 -3 -11 -12 -14 -10 -3 -27 -19
-38 -35 -11 -17 -30 -36 -42 -42 -13 -7 -23 -18 -23 -26 0 -7 -7 -13 -16 -13
-8 0 -13 -3 -11 -7 6 -10 -19 -34 -26 -27 -3 3 -8 -4 -12 -15 -3 -12 -13 -21
-21 -21 -8 0 -13 -4 -10 -9 3 -4 -6 -13 -19 -19 -14 -7 -25 -17 -25 -24 0 -7
-14 -22 -30 -33 -16 -11 -30 -29 -31 -40 -1 -11 -2 -44 -4 -72 -1 -34 1 -50 8
-46 6 4 7 1 2 -7 -11 -18 -13 -240 -2 -233 5 3 5 -2 0 -13 -11 -22 -11 -34 0
-51 4 -6 4 -14 -1 -17 -9 -5 -9 -47 1 -63 4 -7 3 -15 -3 -18 -8 -5 -7 -12 2
-23 7 -9 8 -13 2 -9 -7 4 -11 -5 -11 -23 0 -17 5 -27 10 -23 6 4 7 1 2 -7 -11
-18 -13 -240 -2 -233 5 3 3 -5 -4 -18 -13 -25 -13 -27 2 -46 6 -6 6 -14 2 -16
-10 -6 -10 -48 0 -64 4 -7 3 -15 -3 -18 -8 -5 -7 -12 2 -23 7 -9 8 -13 2 -9
-7 4 -11 -5 -11 -23 0 -17 5 -27 10 -23 6 4 7 1 2 -7 -12 -19 -13 -240 -2
-233 6 4 7 1 2 -8 -5 -7 -9 -45 -9 -84 l-1 -70 -33 -3 c-20 -2 -30 -7 -26 -14
5 -7 2 -8 -7 -2 -22 13 -180 13 -172 0 3 -6 0 -5 -8 2 -18 16 -63 16 -53 0 6
-10 4 -10 -7 0 -18 17 -123 17 -113 0 6 -10 4 -10 -7 0 -18 16 -63 16 -53 -1
6 -9 4 -9 -7 1 -7 6 -24 12 -37 12 -16 0 -21 -4 -16 -12 6 -10 4 -10 -7 0 -7
6 -24 12 -37 12 -16 0 -21 -4 -16 -12 6 -10 4 -10 -7 -1 -18 17 -63 17 -53 1
6 -10 4 -10 -7 -1 -16 16 -43 17 -34 2 4 -6 -2 -5 -13 2 -23 15 -33 41 -22 58
3 7 4 31 0 55 -3 24 -3 53 1 65 5 11 5 21 1 21 -6 0 -7 77 -2 105 2 6 1 15 0
20 -6 26 -4 51 4 56 5 4 5 13 0 20 -10 17 -12 59 -2 59 4 0 4 10 -1 23 -5 13
-5 30 0 39 6 10 6 19 0 23 -7 4 -7 15 -1 30 5 14 6 25 2 25 -4 0 -6 37 -5 82
l2 81 -20 -21 c-11 -12 -24 -22 -29 -22 -6 0 -10 -6 -11 -12 0 -7 -23 -32 -50
-55 -27 -24 -47 -43 -44 -43 3 0 -3 -8 -12 -18 -10 -11 -21 -17 -25 -15 -5 2
-8 -2 -8 -10 0 -7 -11 -20 -25 -27 -13 -7 -22 -17 -20 -21 3 -4 -4 -10 -15
-14 -11 -4 -18 -10 -15 -15 3 -5 -3 -11 -14 -15 -10 -3 -21 -15 -24 -26 -3
-12 -9 -19 -14 -17 -4 2 -31 -20 -59 -49 -28 -29 -49 -53 -46 -53 3 0 -9 -11
-28 -25 -19 -14 -30 -25 -24 -25 5 -1 -1 -6 -14 -14 -13 -7 -32 -26 -43 -42
-10 -16 -19 -25 -19 -20 0 5 -9 -1 -20 -14 -11 -13 -20 -27 -20 -32 0 -4 -7
-8 -16 -8 -8 0 -13 -4 -9 -9 3 -5 -4 -13 -16 -16 -11 -4 -18 -9 -16 -12 3 -2
-18 -28 -47 -56 l-51 -52 0 -252 c0 -138 3 -255 7 -258 4 -4 3 -16 -2 -26 -7
-12 -7 -20 0 -24 10 -6 7 -45 -4 -64 -4 -5 -2 -12 4 -16 10 -6 7 -45 -4 -64
-4 -5 -2 -12 4 -16 9 -5 9 -18 0 -60 -1 -5 -1 -12 0 -15 6 -16 7 -39 2 -36 -4
2 -7 -144 -7 -324 0 -181 3 -323 7 -317 5 8 8 7 8 -3 0 -9 3 -11 8 -4 4 6 15
13 25 17 9 3 17 17 17 29 0 19 2 20 10 8 9 -13 10 -13 11 0 1 8 1 18 0 23 0 4
4 7 9 7 14 0 96 81 93 92 -2 4 0 7 5 6 10 -4 82 68 82 81 0 6 3 10 8 10 18 -3
33 2 28 9 -2 4 19 30 47 57 28 28 52 54 52 59 0 5 8 12 18 15 10 4 18 11 18
16 -1 6 2 10 7 10 8 0 64 55 56 55 -3 0 1 6 8 14 7 8 15 13 18 12 3 -1 15 8
27 21 12 13 20 23 17 23 -3 0 1 6 8 14 8 8 15 10 19 4 4 -5 9 2 13 16 4 15 13
26 23 26 9 0 14 2 11 6 -7 7 45 61 55 56 4 -2 7 3 7 10 0 30 49 33 417 33 244
0 371 3 370 10 -1 5 3 9 10 8 6 -2 15 6 18 17 4 11 11 18 16 15 5 -4 9 -2 9 3
0 13 69 82 82 82 6 0 9 3 5 6 -8 8 18 34 33 34 6 0 9 4 5 9 -3 5 4 13 16 16
11 4 18 9 16 12 -6 6 53 63 65 63 5 0 6 5 3 10 -3 6 2 10 11 10 10 0 15 3 11
6 -8 8 16 33 26 27 4 -2 7 0 7 5 0 12 97 112 103 106 3 -3 8 4 12 15 3 11 15
23 26 26 11 4 18 9 16 11 -6 7 57 72 65 67 4 -2 9 6 13 17 3 11 13 20 21 20 8
0 13 4 9 9 -3 5 4 13 16 16 11 4 18 9 15 13 -4 3 6 14 21 24 16 10 24 18 19
18 -5 0 1 9 14 20 13 11 27 20 32 20 5 0 6 5 3 10 -3 6 -2 10 2 10 18 0 34 40
23 60 -7 13 -7 21 0 25 8 5 8 11 0 20 -8 10 -8 19 0 34 7 15 8 27 0 40 -7 14
-7 22 0 26 8 5 8 11 0 20 -8 10 -8 19 0 34 7 15 8 27 0 40 -7 14 -7 22 0 26 8
5 8 11 0 20 -8 10 -8 19 0 34 7 15 8 27 0 40 -7 14 -7 22 0 26 8 5 8 11 0 20
-8 10 -8 19 0 34 7 15 8 27 0 40 -7 14 -7 22 0 26 8 5 7 11 0 20 -7 8 -8 19
-4 26 11 19 15 86 3 69 -7 -12 -8 -11 -6 5 1 11 6 25 10 32 4 6 1 13 -5 16
-42 16 73 22 387 22 l356 0 27 -31 c15 -17 35 -34 45 -37 9 -4 17 -14 17 -22
0 -9 5 -13 10 -10 6 3 10 -1 10 -9 0 -8 9 -18 20 -21 11 -3 20 -13 20 -21 0
-8 7 -14 15 -14 8 0 15 -6 15 -14 0 -8 9 -18 20 -21 11 -4 18 -9 16 -13 -5
-10 20 -32 28 -25 3 4 6 -1 6 -10 0 -9 7 -17 16 -17 9 0 18 -9 21 -20 3 -10
14 -22 24 -25 11 -4 17 -10 14 -15 -3 -4 5 -10 16 -13 11 -3 23 -15 26 -26 3
-12 12 -21 20 -21 8 0 11 -4 8 -10 -3 -5 -2 -10 3 -10 14 0 112 -97 112 -111
0 -7 2 -10 5 -7 8 7 65 -50 65 -65 0 -7 4 -6 10 3 9 13 10 13 11 0 1 -8 1 -18
0 -22 0 -5 3 -8 9 -8 12 0 106 -92 103 -101 -1 -4 6 -9 17 -12 14 -3 17 -1 13
11 -5 11 -3 13 7 7 9 -6 11 -4 5 5 -12 20 -12 259 0 252 6 -3 4 1 -3 10 -9 11
-10 18 -2 23 6 3 7 11 4 17 -11 18 -10 277 1 270 6 -3 4 1 -3 10 -9 11 -10 18
-2 23 6 3 7 11 4 17 -11 18 -10 277 1 270 6 -3 4 1 -3 10 -9 11 -10 18 -2 23
6 3 7 11 4 17 -11 18 -10 277 1 270 6 -3 4 1 -3 10 -9 11 -10 18 -2 23 6 3 7
11 4 17 -11 18 -10 277 1 270 6 -3 4 1 -3 10 -9 11 -10 18 -2 23 6 3 7 11 4
17 -11 18 -10 277 1 270 6 -3 4 1 -3 10 -9 11 -10 18 -2 23 6 3 7 11 4 17 -11
18 -10 277 1 270 6 -3 4 1 -3 10 -9 11 -10 18 -2 23 6 3 7 11 4 17 -11 18 -10
277 1 270 6 -3 4 1 -3 10 -9 11 -10 18 -2 23 6 3 7 11 4 17 -11 18 -10 277 1
270 6 -3 4 1 -3 10 -9 11 -10 18 -2 23 6 3 7 11 4 17 -11 18 -10 277 1 270 6
-3 4 1 -3 10 -9 11 -10 18 -2 23 6 3 7 11 4 17 -11 18 -10 277 1 270 6 -3 4 1
-3 10 -8 10 -9 19 -3 22 6 4 6 18 1 34 -4 17 -3 36 2 47 8 13 7 16 -1 11 -14
-9 -14 0 0 26 8 14 8 18 0 14 -7 -5 -9 6 -5 34 6 39 2 44 -24 33z"/>
</g>
</svg>
