<?xml version="1.0" standalone="no"?>
<!DOCTYPE svg PUBLIC "-//W3C//DTD SVG 20010904//EN"
 "http://www.w3.org/TR/2001/REC-SVG-20010904/DTD/svg10.dtd">
<svg version="1.0" xmlns="http://www.w3.org/2000/svg"
 width="290.000000pt" height="290.000000pt" viewBox="0 0 290.000000 290.000000"
 preserveAspectRatio="xMidYMid meet">
<metadata>
Created by potrace 1.11, written by Peter Selinger 2001-2013
</metadata>
<g transform="translate(0.000000,290.000000) scale(0.100000,-0.100000)"
fill="#000000" stroke="none">
<path d="M1554 2722 c-17 -15 -102 -85 -189 -157 -87 -71 -164 -136 -171 -143
-11 -10 -13 -171 -14 -855 l0 -842 -68 -65 -69 -66 -203 0 -203 0 -66 63 -66
63 -5 542 -5 541 -200 -165 -200 -164 -3 -574 -2 -574 67 -68 67 -68 616 0
616 0 67 68 67 68 -2 1211 -3 1212 -31 -27z"/>
<path d="M1720 2550 l0 -200 545 0 545 0 0 133 0 133 -68 67 -68 67 -477 0
-477 0 0 -200z"/>
<path d="M885 2153 c-82 -68 -167 -138 -189 -156 -21 -18 -45 -36 -52 -40 -12
-7 -14 -99 -14 -550 l0 -543 68 -67 68 -67 70 0 70 0 67 68 67 68 -2 705 -3
705 -150 -123z"/>
<path d="M1720 457 l0 -133 68 -67 68 -67 410 0 410 0 67 68 67 68 0 132 0
132 -545 0 -545 0 0 -133z"/>
</g>
</svg>
